<?xml version="1.0" encoding="UTF-8" standalone="no"?>
<!-- Created with Inkscape (http://www.inkscape.org/) -->

<svg
   version="1.1"
   id="svg1"
   width="308.45334"
   height="310.97333"
   viewBox="0 0 308.45334 310.97333"
   sodipodi:docname="Elgato_Brand_Mark_01_Black.eps"
   xmlns:inkscape="http://www.inkscape.org/namespaces/inkscape"
   xmlns:sodipodi="http://sodipodi.sourceforge.net/DTD/sodipodi-0.dtd"
   xmlns="http://www.w3.org/2000/svg"
   xmlns:svg="http://www.w3.org/2000/svg">
  <defs
     id="defs1" />
  <sodipodi:namedview
     id="namedview1"
     pagecolor="#ffffff"
     bordercolor="#000000"
     borderopacity="0.25"
     inkscape:showpageshadow="2"
     inkscape:pageopacity="0.0"
     inkscape:pagecheckerboard="0"
     inkscape:deskcolor="#d1d1d1">
    <inkscape:page
       x="0"
       y="0"
       inkscape:label="1"
       id="page1"
       width="308.45334"
       height="310.97333"
       margin="0"
       bleed="0" />
  </sodipodi:namedview>
  <g
     id="g1"
     inkscape:groupmode="layer"
     inkscape:label="1">
    <g
       id="group-R5">
      <path
         id="path2"
         d="m 1342.79,1514.49 -2.52,1.91 -412.661,235.9 -206.57,-119.03 V 713.961 L 927.93,596.082 1512.9,933.23 1311.99,1048.07 921.77,823.172 V 1525.4 l 1131.94,-647.638 -0.68,-4.09 C 1991.86,688.648 1876.1,529.461 1718.28,413.309 1557.18,294.762 1366.25,232.09 1166.14,232.09 c -515.038,0 -934.062,419.031 -934.062,934.08 0,515.06 419.024,934.08 934.062,934.08 394.44,0 748.23,-250.12 880.36,-622.4 9.81,-27.63 18.39,-56.02 25.55,-84.52 l 207.27,120.13 c -8.84,28.37 -18.85,56.63 -29.78,84.07 -85.35,214.35 -231.15,397.22 -421.63,528.85 -194.99,134.73 -423.83,205.95 -661.77,205.95 -311.492,0 -604.331,-121.3 -824.581,-341.56 C 121.301,1770.51 0,1477.67 0,1166.17 0,854.68 121.301,561.832 341.559,341.559 561.809,121.301 854.648,0 1166.14,0 c 275.78,0 543.32,98.0898 753.34,276.18 206.61,175.211 346.3,417.55 393.92,682.718 l -970.61,555.592"
         style="fill:#101010;fill-opacity:1;fill-rule:nonzero;stroke:none"
         transform="matrix(0.13333333,0,0,-0.13333333,0,310.97333)" />
    </g>
  </g>
</svg>
